<svg id="help-icons" xmlns="http://www.w3.org/2000/svg" viewBox="0 0 100 100">
  <defs>
    <style>
      .cls-1 {
        fill: none;
        stroke: #000;
        stroke-miterlimit: 10;
        stroke-width: 2px;
      }
    </style>
  </defs>
  <title>icon-razeni</title>
  <g id="help-razeni">
    <rect class="cls-1" x="10" y="47.89" width="20" height="20"/>
    <rect class="cls-1" x="40" y="47.89" width="20" height="20"/>
    <rect class="cls-1" x="70" y="47.89" width="20" height="20"/>
    <g>
      <path d="M15.92,40.14l.61-.59a.2.2,0,0,1,.31,0,2.53,2.53,0,0,0,1.48.65,1.22,1.22,0,0,0,1.27-1.13c0-.62-.58-1.19-1.66-1.19h-.67a.22.22,0,0,1-.23-.24v-.76a.21.21,0,0,1,.23-.24h.67c1,0,1.49-.49,1.49-1.1a1.12,1.12,0,0,0-1.16-1.1A1.55,1.55,0,0,0,17,35a.22.22,0,0,1-.32,0l-.59-.55a.21.21,0,0,1,0-.31,3.28,3.28,0,0,1,2.25-1.06,2.32,2.32,0,0,1,2.55,2.19,2.18,2.18,0,0,1-1.23,1.87v0a2.25,2.25,0,0,1,1.45,2c0,1.36-1.1,2.34-2.76,2.34a3.1,3.1,0,0,1-2.49-1.07A.24.24,0,0,1,15.92,40.14Z"/>
      <path d="M23.14,39.53a1,1,0,0,1,1,1,1,1,0,0,1-1,1,1,1,0,0,1-1-1A1,1,0,0,1,23.14,39.53Z"/>
    </g>
    <g>
      <path d="M48.19,34.42l-1.06.23a.2.2,0,0,1-.24-.16l-.07-.59a.25.25,0,0,1,.06-.22l1.73-1.45h.84a.23.23,0,0,1,.22.23v7.7a.23.23,0,0,1-.22.23h-1a.23.23,0,0,1-.23-.23Z"/>
      <path d="M52.19,38.53a1,1,0,0,1,1,1,1,1,0,0,1-1,1,1,1,0,0,1-1-1A1,1,0,0,1,52.19,38.53Z"/>
    </g>
    <g>
      <path d="M75.88,39.88c.79-1,2.3-2.93,3.11-4a2.29,2.29,0,0,0,.61-1.33,1.13,1.13,0,0,0-1.27-1.09,2,2,0,0,0-1.34.71.22.22,0,0,1-.32,0l-.58-.58a.24.24,0,0,1,0-.31,3.32,3.32,0,0,1,2.36-1.18,2.42,2.42,0,0,1,2.67,2.39,3.2,3.2,0,0,1-.8,1.94c-.52.73-1.43,1.86-2.06,2.66h2.59a.24.24,0,0,1,.23.23v.83a.24.24,0,0,1-.23.23H76.11a.23.23,0,0,1-.23-.23Z"/>
      <path d="M83.13,38.53a1,1,0,0,1,1,1,1,1,0,0,1-1,1,1,1,0,0,1-1-1A1,1,0,0,1,83.13,38.53Z"/>
    </g>
  </g>
</svg>
