<svg xmlns="http://www.w3.org/2000/svg" viewBox="0 0 40 40"><path d="M19.3 10h-8.6A2.7 2.7 0 008 12.7v8.6a2.7 2.7 0 002.7 2.7h8.6a2.7 2.7 0 002.7-2.7v-8.6a2.7 2.7 0 00-2.7-2.7zm.7 11.3a.7.7 0 01-.7.7h-8.6a.7.7 0 01-.7-.7v-8.6a.7.7 0 01.7-.7h8.6a.7.7 0 01.7.7zm7.3 4.3a1 1 0 00-.3.7 1 1 0 00.3.8 1 1 0 001.4 0 1 1 0 00.3-.8 1 1 0 00-.3-.7 1 1 0 00-1.4 0zm0-7.3a1 1 0 00-.3.7 1 1 0 00.3.7A1 1 0 0029 19a1 1 0 00-.3-.7 1 1 0 00-1.4 0zm0 3.7a1 1 0 00-.3.7 1 1 0 00.3.7 1 1 0 00.7.3 1 1 0 00.7-.3 1 1 0 00.3-.7 1 1 0 00-.3-.7 1 1 0 00-1.4 0zm-11 3.6a1 1 0 00-.3.7 1 1 0 00.3.8 1 1 0 00.7.2 1 1 0 00.7-.2 1 1 0 00.3-.8 1 1 0 00-.3-.7 1 1 0 00-1.4 0zm0 3.7a1 1 0 00-.3.7 1 1 0 00.3.7 1 1 0 00.7.3 1 1 0 001-1 1 1 0 00-.3-.7 1 1 0 00-1.4 0zm3.7 0a1 1 0 00-.3.7 1 1 0 001 1 1 1 0 00.7-.3 1 1 0 00.3-.7 1 1 0 00-1.7-.7zm3.6 0a1 1 0 00-.3.7 1 1 0 002 0 1 1 0 00-.3-.7 1 1 0 00-1.4 0zm3.7 0a1 1 0 00-.3.7 1 1 0 00.3.7A1 1 0 0029 30a1 1 0 00-.3-.7 1 1 0 00-1.4 0zm-3.7-11a1 1 0 00-.3.7 1 1 0 002 0 1 1 0 00-.3-.7 1 1 0 00-1.4 0z"/><path d="M16 13.5a1 1 0 00-1 0l-2 1.3a1 1 0 001 1.7l.6-.3v3.4a1 1 0 002 0v-5.2a1 1 0 00-.5-1zm12-2.7h-1.4l.5-.5a.8.8 0 00-1.1-1L24.2 11a.8.8 0 00-.1.2.7.7 0 00-.1.3.7.7 0 000 .3.8.8 0 00.2.3l1.8 1.8a.8.8 0 001 0 .8.8 0 000-1l-.5-.6H28a2.3 2.3 0 012.5 2v2.8a.8.8 0 001.5 0v-2.8a3.8 3.8 0 00-4-3.5z"/></svg>