<svg xmlns="http://www.w3.org/2000/svg" viewBox="0 0 40 40"><path d="M14.2 22.2l-1 2.2a1 1 0 01-.8.6.9.9 0 01-1-.9.8.8 0 01.1-.3l3.7-9a.9.9 0 011.7 0l3.7 9a.8.8 0 010 .3.9.9 0 01-.9 1 1 1 0 01-.8-.7l-1-2.2zm1.9-5l-1.3 3.3h2.6zm6.9 2.5a.7.7 0 01-.6.1.7.7 0 01-.7-.7.8.8 0 01.2-.5 3.3 3.3 0 012.6-1c2 0 3 1 3 2.6v4a.8.8 0 01-1.6 0 2.2 2.2 0 01-2 .9 2.3 2.3 0 01-2.6-2.4 2.3 2.3 0 012.5-2.2H26v-.2c0-.8-.5-1.2-1.4-1.2a2.6 2.6 0 00-1.6.6zm3 2.6v-.5h-2c-.6 0-1 .4-1 1s.4 1 1.3 1a1.5 1.5 0 001.6-1.5z"/><path d="M31 27a1 1 0 01-1-1V13.5a1.5 1.5 0 00-1.5-1.5H16a1 1 0 010-2h12.5a3.5 3.5 0 013.5 3.5V26a1 1 0 01-1 1zm-11 3h-8.5A3.5 3.5 0 018 26.5V14a1 1 0 012 0v12.5a1.5 1.5 0 001.5 1.5H20a1 1 0 010 2zm7.5 0H24a1 1 0 010-2h3.5a1 1 0 010 2z"/></svg>