<svg xmlns="http://www.w3.org/2000/svg" viewBox="0 0 100 100"><path d="M44.84 83a1.14 1.14 0 01-1.14-1.14 21.53 21.53 0 00-4.32-13.19C38 67 36.52 67.14 34.7 67.36c-1.51.19-3.23.4-4.71-.79-2.48-2-2.86-5.8-3.38-11.06-.63-6.31-1.49-15-6.49-24.89a1.11 1.11 0 01.53-1.51 1.17 1.17 0 011.55.52c5.18 10.31 6.07 19.18 6.72 25.66.47 4.72.81 8.13 2.56 9.55.67.54 1.55.47 2.94.29 1.92-.24 4.56-.57 6.78 2.15A23.75 23.75 0 0146 81.89 1.14 1.14 0 0144.84 83zM78.6 49H55.43l-.06 1.22-.3 6-.07 1.31h3.24l.09-1.18a4.35 4.35 0 01.6-2.11 2.22 2.22 0 011-.89 7.27 7.27 0 012.1-.19h1.77v18.15a5.92 5.92 0 01-.2 2c-.08.12-.33.4-1.22.4h-2.13V77h13.33v-3.26h-2.16a1.75 1.75 0 01-1.2-.33 6.14 6.14 0 01-.22-2.1V53.16h2.3a4.19 4.19 0 011.94.36 2.49 2.49 0 011 1.08 5.94 5.94 0 01.42 1.81l.15 1.11H79l-.06-1.34-.28-6L78.6 49z"/><circle cx="50" cy="24" r="7"/></svg>