<svg id="help-icons" xmlns="http://www.w3.org/2000/svg" viewBox="0 0 100 100">
  <title>icon-svg</title>
  <g id="help-svg">
    <path d="M44.84,83h0a1.14,1.14,0,0,1-1.14-1.14,21.53,21.53,0,0,0-4.32-13.19C38,67,36.52,67.14,34.7,67.36c-1.51.19-3.23.4-4.71-.79-2.48-2-2.86-5.8-3.38-11.06-.63-6.31-1.49-15-6.49-24.89a1.11,1.11,0,0,1,.53-1.51,1.17,1.17,0,0,1,1.55.52c5.18,10.31,6.07,19.18,6.72,25.66.47,4.72.81,8.13,2.56,9.55.67.54,1.55.47,2.94.29,1.92-.24,4.56-.57,6.78,2.15l0,0A23.75,23.75,0,0,1,46,81.89,1.14,1.14,0,0,1,44.84,83Z"/>
    <path d="M78.6,49H55.43l-.06,1.22-.3,6L55,57.53h3.24l.09-1.18a4.35,4.35,0,0,1,.6-2.11,2.22,2.22,0,0,1,1-.89,7.27,7.27,0,0,1,2.1-.19h1.77V71.31a5.92,5.92,0,0,1-.2,2c-.08.12-.33.4-1.22.4H60.25V77H73.58V73.74H71.42a1.75,1.75,0,0,1-1.2-.33A6.14,6.14,0,0,1,70,71.31V53.16h2.3a4.19,4.19,0,0,1,1.94.36,2.49,2.49,0,0,1,1,1.08,5.94,5.94,0,0,1,.42,1.81l.15,1.11H79l-.06-1.34-.28-6L78.6,49Z"/>
    <circle cx="50" cy="24" r="7"/>
  </g>
</svg>
