<svg id="help-icons" xmlns="http://www.w3.org/2000/svg" viewBox="0 0 100 100">
  <title>icon-cteni</title>
  <g>
    <g>
      <path d="M28.63,45H72.3a1.14,1.14,0,0,0,1.2-1,1.06,1.06,0,0,0-1.13-1H28.7a1.14,1.14,0,0,0-1.2,1A1.06,1.06,0,0,0,28.63,45Z"/>
      <path d="M28.63,51H72.3a1.14,1.14,0,0,0,1.2-1,1.06,1.06,0,0,0-1.13-1H28.7a1.14,1.14,0,0,0-1.2,1A1.06,1.06,0,0,0,28.63,51Z"/>
      <path d="M28.63,39H73.3a1.14,1.14,0,0,0,1.2-1,1.06,1.06,0,0,0-1.13-1H28.7a1.14,1.14,0,0,0-1.2,1A1.06,1.06,0,0,0,28.63,39Z"/>
      <path d="M28.63,63H72.3a1.14,1.14,0,0,0,1.2-1,1.06,1.06,0,0,0-1.13-1H28.7a1.14,1.14,0,0,0-1.2,1A1.06,1.06,0,0,0,28.63,63Z"/>
      <path d="M28.63,69H72.3a1.14,1.14,0,0,0,1.2-1,1.06,1.06,0,0,0-1.13-1H28.7a1.14,1.14,0,0,0-1.2,1A1.06,1.06,0,0,0,28.63,69Z"/>
      <path d="M28.63,57H72.3a1.14,1.14,0,0,0,1.2-1,1.06,1.06,0,0,0-1.13-1H28.7a1.14,1.14,0,0,0-1.2,1A1.06,1.06,0,0,0,28.63,57Z"/>
      <path d="M28.62,75H72.3a1.13,1.13,0,0,0,1.19-1,1.06,1.06,0,0,0-1.12-1H28.7a1.13,1.13,0,0,0-1.19,1A1.06,1.06,0,0,0,28.62,75Z"/>
      <path d="M28.63,81H55.3a1.14,1.14,0,0,0,1.2-1,1.06,1.06,0,0,0-1.13-1H28.7a1.14,1.14,0,0,0-1.2,1A1.06,1.06,0,0,0,28.63,81Z"/>
    </g>
    <polygon points="21 89.75 19 89.75 19 24 81 24 81 89.74 79 89.74 79 26 21 26 21 89.75"/>
  </g>
</svg>
