<svg xmlns="http://www.w3.org/2000/svg" viewBox="0 0 100 100"><path d="M79 43a2 2 0 0 0-1 .2l-10.1 5.5a9 9 0 0 0-6.1-7.3 11.5 11.5 0 1 0-19.2-11.6A8.5 8.5 0 0 0 30.4 41 9 9 0 0 0 23 50v13a9 9 0 0 0 9 9h27a9 9 0 0 0 8.9-7.7L78 69.8a2 2 0 0 0 1 .2 3.8 3.8 0 0 0 4-4V47a3.8 3.8 0 0 0-4-4zM53.4 26a7.5 7.5 0 1 1-7.5 7.5 7.5 7.5 0 0 1 7.5-7.5zm-8.7 15h-.1zm-7.3-9a4.5 4.5 0 1 1-4.5 4.5 4.5 4.5 0 0 1 4.5-4.5zM64 63a5 5 0 0 1-5 5H32a5 5 0 0 1-5-5V50a5 5 0 0 1 5-5h27a5 5 0 0 1 5 5v13zm15 2.7l-11-6v-6.5l11-6z"/></svg>