<svg id="Capa_1" data-name="Capa 1" xmlns="http://www.w3.org/2000/svg" viewBox="0 0 70 70">
  <title>icon-svg-text</title>
  <path d="M62.36,19.42,61.71,5.79,61.58,3H8.48L8.34,5.78,7.65,19.42,7.5,22.49h7.43l.2-2.71A10,10,0,0,1,16.52,15a5.06,5.06,0,0,1,2.39-2,16.3,16.3,0,0,1,4.81-.44h4.07V54c0,3.47-.4,4.49-.46,4.63s-.74.93-2.79.93h-5V67H50.08V59.56H45.13a4,4,0,0,1-2.75-.74c-.12-.26-.5-1.41-.5-4.83V12.5h5.27a9.68,9.68,0,0,1,4.44.83,5.7,5.7,0,0,1,2.34,2.47,13.84,13.84,0,0,1,1,4.15l.33,2.55H62.5Z"/>
</svg>
