<svg xmlns="http://www.w3.org/2000/svg" viewBox="0 0 40 40">
  <path d="M27.4 25.5H12.8a1.9 1.9 0 0 0-1.8 1.9v3.2a1.9 1.9 0 0 0 1.8 1.9h14.8a1.9 1.9 0 0 0 1.8-1.9v-3.2a1.9 1.9 0 0 0-1.9-1.9zm-12.5 2h10.4v3H15zM6.2 14.5h12.1a1.9 1.9 0 0 0 1.9-1.9v-1.2a1.9 1.9 0 0 0-1.9-1.9h-12a1.9 1.9 0 0 0-2 1.9v1.2a1.9 1.9 0 0 0 2 1.9zm10-2H8.4v-1h7.8zM23.1 15.5h10.7a1.9 1.9 0 0 0 1.8-1.9v-3.2a1.9 1.9 0 0 0-1.8-1.9H23a1.9 1.9 0 0 0-1.8 1.9v3.2a1.9 1.9 0 0 0 1.8 1.9zm8.5-2h-6.3v-3h6.3z"/>
  <path d="M35.2 17.5h-7.8a1.9 1.9 0 0 0-1.8 1.9v2.2a1.9 1.9 0 0 0 1.8 1.9h7.8a1.9 1.9 0 0 0 1.9-1.9v-2.2a1.9 1.9 0 0 0-1.9-1.9zm-5.6 2H33v2h-3.5zM22.8 23a1.9 1.9 0 0 0 1.8-1.9V20a1.9 1.9 0 0 0-1.9-1.9h-18A1.9 1.9 0 0 0 3 19.9V21A1.9 1.9 0 0 0 4.8 23h18zM6.8 20h13.7v1H7z"/>
</svg>