<svg xmlns="http://www.w3.org/2000/svg" viewBox="0 0 100 100"><path d="M28.63 45H72.3a1.14 1.14 0 0 0 1.2-1 1.06 1.06 0 0 0-1.13-1H28.7a1.14 1.14 0 0 0-1.2 1 1.06 1.06 0 0 0 1.13 1zm0 6H72.3a1.14 1.14 0 0 0 1.2-1 1.06 1.06 0 0 0-1.13-1H28.7a1.14 1.14 0 0 0-1.2 1 1.06 1.06 0 0 0 1.13 1zm0-12H73.3a1.14 1.14 0 0 0 1.2-1 1.06 1.06 0 0 0-1.13-1H28.7a1.14 1.14 0 0 0-1.2 1 1.06 1.06 0 0 0 1.13 1zm0 24H72.3a1.14 1.14 0 0 0 1.2-1 1.06 1.06 0 0 0-1.13-1H28.7a1.14 1.14 0 0 0-1.2 1 1.06 1.06 0 0 0 1.13 1zm0 6H72.3a1.14 1.14 0 0 0 1.2-1 1.06 1.06 0 0 0-1.13-1H28.7a1.14 1.14 0 0 0-1.2 1 1.06 1.06 0 0 0 1.13 1zm0-12H72.3a1.14 1.14 0 0 0 1.2-1 1.06 1.06 0 0 0-1.13-1H28.7a1.14 1.14 0 0 0-1.2 1 1.06 1.06 0 0 0 1.13 1zm-.01 18H72.3a1.13 1.13 0 0 0 1.19-1 1.06 1.06 0 0 0-1.12-1H28.7a1.13 1.13 0 0 0-1.19 1 1.06 1.06 0 0 0 1.11 1zm.01 6H55.3a1.14 1.14 0 0 0 1.2-1 1.06 1.06 0 0 0-1.13-1H28.7a1.14 1.14 0 0 0-1.2 1 1.06 1.06 0 0 0 1.13 1z"/><path d="M21 89.75h-2V24h62v65.74h-2V26H21v63.75z"/></svg>