<svg xmlns="http://www.w3.org/2000/svg" viewBox="0 0 40 40">
  <path d="M35.2 18h-7.8a1.9 1.9 0 0 0-1.8 1.9V22a1.9 1.9 0 0 0 1.8 1.9h7.8a1.9 1.9 0 0 0 1.9-1.9V20a1.9 1.9 0 0 0-1.9-1.9zm-.1 4h-3.5v-2H35zM22.8 24a1.9 1.9 0 0 0 1.8-1.9V20a1.9 1.9 0 0 0-1.9-1.9H7.3a1 1 0 0 0-.2 0H4.8a1.9 1.9 0 0 0-1.9 1.9v2.3A1.9 1.9 0 0 0 4.8 24h18zM4.9 22v-2h2v2zm17.7 0H9v-2h13.7zM5.7 16h14.1a1.9 1.9 0 0 0 1.9-1.9V12a1.9 1.9 0 0 0-1.9-1.9h-14a1.9 1.9 0 0 0-2 1.9V14a1.9 1.9 0 0 0 2 1.9zm14-2H9.9v-2h9.8zM24.6 16h9.7a1.9 1.9 0 0 0 1.8-1.9V12a1.9 1.9 0 0 0-1.8-1.9h-9.7a1.9 1.9 0 0 0-1.8 1.9V14a1.9 1.9 0 0 0 1.8 1.9zm9.5-2h-5.3v-2H34zm-9.3-2h2v2h-2zM27.4 26H12.6a1.9 1.9 0 0 0-1.9 1.9V30a1.9 1.9 0 0 0 2 1.9h14.7a1.9 1.9 0 0 0 1.9-1.9V28a1.9 1.9 0 0 0-2-1.9zm-14.6 4v-2h2v2zm14.4 0H16.9v-2h10.4z"/>
</svg>