<svg id="Capa_1" data-name="Capa 1" xmlns="http://www.w3.org/2000/svg" viewBox="0 0 70 70">
  <title>icon-close</title>
  <path d="M63.55,67.67a4,4,0,0,1-2.75-1.11L35,40.77,9.26,66.51A4,4,0,0,1,6.5,67.66,4.26,4.26,0,0,1,2.63,65a3.86,3.86,0,0,1,.86-4.27L29.23,35,3.49,9.26a3.93,3.93,0,0,1-.81-4.37A4.28,4.28,0,0,1,6.52,2.33,3.87,3.87,0,0,1,9.26,3.49L35,29.23,60.74,3.49A4,4,0,0,1,63.5,2.35,4.26,4.26,0,0,1,67.37,5a3.86,3.86,0,0,1-.86,4.27L40.77,35,66.51,60.74a4,4,0,0,1,.82,4.42,4.22,4.22,0,0,1-3.78,2.52Z"/>
</svg>
