<svg xmlns="http://www.w3.org/2000/svg" viewBox="0 0 70 70"><path d="M69.9.8a1.4 1.4 0 0 0-.7-.7 1.5 1.5 0 0 0-.5-.1H52.8a1.3 1.3 0 0 0 0 2.6h12.7L44 24.2a1.3 1.3 0 0 0 1 2.2 1.3 1.3 0 0 0 .9-.4L67.4 4.5v12.7a1.3 1.3 0 1 0 2.6 0V1.3a1.2 1.2 0 0 0-.1-.5zM24.2 44L2.6 65.5V52.8a1.3 1.3 0 0 0-2.6 0v15.9a1.5 1.5 0 0 0 .1.5 1.3 1.3 0 0 0 .7.7 1.2 1.2 0 0 0 .5.1h15.9a1.3 1.3 0 1 0 0-2.6H4.5L26 45.8a1.3 1.3 0 0 0-1.8-1.8zM1.3 18.5a1.3 1.3 0 0 0 1.3-1.3V4.5L24.2 26a1.3 1.3 0 0 0 1.8-1.8L4.5 2.6h12.7a1.3 1.3 0 0 0 0-2.6H1.3a1.4 1.4 0 0 0-.5.1 1.3 1.3 0 0 0-.7.7 1.4 1.4 0 0 0-.1.5v15.9a1.3 1.3 0 0 0 1.3 1.3zm67.4 33a1.3 1.3 0 0 0-1.3 1.3v12.7L45.8 44a1.3 1.3 0 0 0-1.8 1.8l21.5 21.6H52.8a1.3 1.3 0 1 0 0 2.6h15.9a1.3 1.3 0 0 0 .5-.1 1.3 1.3 0 0 0 .7-.7 1.3 1.3 0 0 0 .1-.5V52.8a1.3 1.3 0 0 0-1.3-1.3zm0 0"/></svg>