<svg xmlns="http://www.w3.org/2000/svg" viewBox="0 0 100 100"><path d="M21.63 37H76.3a1.14 1.14 0 001.2-1 1.06 1.06 0 00-1.13-1H21.71a1.14 1.14 0 00-1.2 1 1.06 1.06 0 001.12 1zm0 9H76.3a1.14 1.14 0 001.2-1 1.06 1.06 0 00-1.13-1H21.71a1.14 1.14 0 00-1.2 1 1.06 1.06 0 001.12 1zm0-18H76.3a1.14 1.14 0 001.2-1 1.06 1.06 0 00-1.13-1H21.71a1.14 1.14 0 00-1.2 1 1.06 1.06 0 001.12 1zm0 27h54.68a1.13 1.13 0 001.19-1 1.06 1.06 0 00-1.12-1H21.7a1.13 1.13 0 00-1.19 1 1.06 1.06 0 001.12 1zm0 9h54.68a1.13 1.13 0 001.19-1 1.06 1.06 0 00-1.12-1H21.7a1.13 1.13 0 00-1.19 1 1.06 1.06 0 001.12 1zm0 9H54.3a1.14 1.14 0 001.2-1 1.06 1.06 0 00-1.13-1H21.71a1.14 1.14 0 00-1.2 1 1.06 1.06 0 001.12 1z"/><path d="M50 31h22.7c2.47 0 4.7-1.64 4.8-3.82A4.25 4.25 0 0073 23H50.31c-2.47 0-4.7 1.64-4.8 3.82A4.25 4.25 0 0050 31zM32.48 49h10.75c2.47 0 4.7-1.64 4.8-3.82a4.25 4.25 0 00-4.5-4.18H32.78c-2.47 0-4.7 1.64-4.8 3.82a4.25 4.25 0 004.5 4.18zm5.11 18h29.15c2.47 0 4.7-1.64 4.8-3.82A4.25 4.25 0 0067 59H37.88c-2.47 0-4.7 1.64-4.8 3.82A4.25 4.25 0 0037.59 67z"/></svg>