<svg xmlns="http://www.w3.org/2000/svg" viewBox="0 0 100 100"><path d="M44.63 37H77.3a1.14 1.14 0 001.2-1 1.06 1.06 0 00-1.13-1H44.7a1.14 1.14 0 00-1.2 1 1.06 1.06 0 001.13 1zm0 9H77.3a1.14 1.14 0 001.2-1 1.06 1.06 0 00-1.13-1H44.7a1.14 1.14 0 00-1.2 1 1.06 1.06 0 001.13 1zm0-18H77.3a1.14 1.14 0 001.2-1 1.06 1.06 0 00-1.13-1H44.7a1.14 1.14 0 00-1.2 1 1.06 1.06 0 001.13 1zM22.62 55H77.3a1.13 1.13 0 001.19-1 1.06 1.06 0 00-1.12-1H22.7a1.13 1.13 0 00-1.19 1 1.06 1.06 0 001.11 1zm0 9H77.3a1.13 1.13 0 001.19-1 1.06 1.06 0 00-1.12-1H22.7a1.13 1.13 0 00-1.19 1 1.06 1.06 0 001.11 1zm.01 9H55.3a1.14 1.14 0 001.2-1 1.06 1.06 0 00-1.13-1H22.7a1.14 1.14 0 00-1.2 1 1.06 1.06 0 001.13 1zm16.63-47l.24 4.69h-.6a5.36 5.36 0 00-.47-1.77 3.07 3.07 0 00-1.3-1.26 4.83 4.83 0 00-2.13-.41h-3v15.28a3.86 3.86 0 00.43 2.3 2.47 2.47 0 001.85.62H35V46h-9.12v-.55h.76a2.25 2.25 0 001.93-.77 4.21 4.21 0 00.35-2.15V27.25h-2.58a7.68 7.68 0 00-2.14.21 2.9 2.9 0 00-1.41 1.08 4.15 4.15 0 00-.7 2.15h-.6l.26-4.69z"/></svg>