<svg xmlns="http://www.w3.org/2000/svg" viewBox="0 0 100 100"><path d="M9 61h10v.55l2-.1V61h10V39H9zm2-20h18v18H11zm50-2H39v22h22zm-2 20H41V41h18zm32-20H69v22h10v.45l2 .1V61h10zm-2 20H71V41h18zM25.77 79.33a31.23 31.23 0 002.13 2.4l1.43-1.4a29.48 29.48 0 01-2-2.25zm5.33 5.24a31 31 0 002.64 1.83l1.05-1.7a29.06 29.06 0 01-2.47-1.7zm-9.58-19.09l-2 .38a30.88 30.88 0 00.8 3.14l1.92-.58a28.83 28.83 0 01-.72-2.94zm.32 7.52a31 31 0 001.49 2.84l1.72-1a29 29 0 01-1.4-2.66zm37.05 14.61l.61 1.9a31.06 31.06 0 003-1.14l-.81-1.83a29 29 0 01-2.8 1.07zM75 74.76l1.72 1a31 31 0 001.49-2.85l-1.82-.83A29 29 0 0175 74.76zM37.53 88.39a30.92 30.92 0 003 1.14l.61-1.9a28.94 28.94 0 01-2.81-1.06zm40.25-20.04l1.92.57a30.94 30.94 0 00.76-3.12l-2-.37a28.9 28.9 0 01-.68 2.92zM70.7 80.31l1.43 1.4a31.59 31.59 0 002.13-2.41l-1.56-1.25a29.25 29.25 0 01-2 2.26zm-26 10.24a31.12 31.12 0 003.19.38l.13-2a29.31 29.31 0 01-3-.36zm20.54-5.87l1.05 1.7a31.36 31.36 0 002.64-1.83L67.71 83a29.28 29.28 0 01-2.47 1.68zM52 88.93l.14 2a31.13 31.13 0 003.19-.39l-.34-2a29 29 0 01-2.99.39z"/></svg>