<svg enable-background="new 0 0 376.072 376.072" viewBox="0 0 376.072 376.072" xmlns="http://www.w3.org/2000/svg"><path d="m259.261 200.452h-142.941c-9.781 0-13.331 6.863-13.331 11.477v17.937c0 22.139 18.011 40.149 40.15 40.149h27.719v72.671c0 2.757-2.243 5-5 5h-26.908c-8.271 0-15 6.367-15 14.193s6.729 14.193 15 14.193h98.17c8.271 0 15-6.367 15-14.193s-6.729-14.193-15-14.193h-26.907c-2.757 0-5-2.243-5-5v-72.671h27.719c22.139 0 40.15-18.011 40.15-40.149v-17.424c.001-4.82-3.68-11.99-13.821-11.99z"/><path d="m232.933 0h-89.794c-22.139 0-40.15 18.011-40.15 40.149v128.676c0 3.92 2.983 10.141 10.988 10.141h145.504c9.979 0 13.602-7.466 13.602-12.484v-126.333c0-22.138-18.011-40.149-40.15-40.149zm-101.399 147.504c-7.347 0-13.303-5.956-13.303-13.303s5.956-13.303 13.303-13.303 13.303 5.956 13.303 13.303-5.956 13.303-13.303 13.303zm0-44.909c-7.347 0-13.303-5.956-13.303-13.303s5.956-13.303 13.303-13.303 13.303 5.956 13.303 13.303-5.956 13.303-13.303 13.303zm0-44.909c-7.347 0-13.303-5.956-13.303-13.303s5.956-13.303 13.303-13.303 13.303 5.956 13.303 13.303-5.956 13.303-13.303 13.303zm37.668 89.818c-7.347 0-13.303-5.956-13.303-13.303s5.956-13.303 13.303-13.303 13.303 5.956 13.303 13.303-5.956 13.303-13.303 13.303zm0-44.909c-7.347 0-13.303-5.956-13.303-13.303s5.956-13.303 13.303-13.303 13.303 5.956 13.303 13.303-5.956 13.303-13.303 13.303zm0-44.909c-7.347 0-13.303-5.956-13.303-13.303s5.956-13.303 13.303-13.303 13.303 5.956 13.303 13.303-5.956 13.303-13.303 13.303zm37.668 89.818c-7.347 0-13.303-5.956-13.303-13.303s5.956-13.303 13.303-13.303 13.303 5.956 13.303 13.303-5.956 13.303-13.303 13.303zm0-44.909c-7.347 0-13.303-5.956-13.303-13.303s5.956-13.303 13.303-13.303 13.303 5.956 13.303 13.303-5.956 13.303-13.303 13.303zm0-44.909c-7.347 0-13.303-5.956-13.303-13.303s5.956-13.303 13.303-13.303 13.303 5.956 13.303 13.303-5.956 13.303-13.303 13.303zm37.668 89.818c-7.347 0-13.303-5.956-13.303-13.303s5.956-13.303 13.303-13.303 13.303 5.956 13.303 13.303-5.956 13.303-13.303 13.303zm0-44.909c-7.347 0-13.303-5.956-13.303-13.303s5.956-13.303 13.303-13.303 13.303 5.956 13.303 13.303-5.956 13.303-13.303 13.303zm0-44.909c-7.347 0-13.303-5.956-13.303-13.303s5.956-13.303 13.303-13.303 13.303 5.956 13.303 13.303-5.956 13.303-13.303 13.303z"/></svg>