<svg xmlns="http://www.w3.org/2000/svg" viewBox="0 0 336 50"><path d="M0 35.05h29.85l4.6 7.47H0v-7.47zm0-11.66v7.41h27.24l-4.56-7.41zm29.22-4.26H0v-7.42h31.18v.88a10.38 10.38 0 01-2 6.54M15 0H0v7.45h30.24C28.06 2.36 22.31 0 15 0M173.12 19.1h-7.05l-3.88 15.77-4.25-15.77h-7.23l6.78 19a11 11 0 01.95 3.35 3.38 3.38 0 01-1 2.39 5.42 5.42 0 01-2.81.59h-1.76v5.17c.59 0 1.17.09 1.76.09 2.89 0 6.56.18 8.54-2.31a19.65 19.65 0 002.22-5.06l7.72-23.22zm-2.8-9.85h-8l-3.2 6.75h5.16l6-6.74zM229 42.53v-5l11.56-12.92h-10.24v-5.49h18.52v5.38L237.63 37h12v5.52zm38.27 0V29.42c0-1.49.09-3.29-1.13-4.38a3.41 3.41 0 00-2.36-.81 3.83 3.83 0 00-2.57.9c-1.58 1.31-1.49 3.53-1.49 5.38v12h-6.6V10.63h6.6v10.89c1-1.86 4.38-2.94 6.37-2.94a8.43 8.43 0 014.65 1.31c2.71 1.94 3.16 4.56 3.16 7.68v15zm17.89 0h-6.64v-31.9h6.64v31.9zm50.1-7.19c0-5.87-5.78-6.91-10.3-7.86-1.22-.27-4-.59-4-2.26s2-1.89 3.26-1.89a4.51 4.51 0 013.52 1.49 4.65 4.65 0 01.59 1.89l6.23-.31c-.27-5.74-5.1-8-10.25-8-4.75 0-9.76 1.9-9.76 7.41 0 9.36 13.91 6 13.91 10.17 0 1.85-1.89 2.17-3.34 2.17-3 0-4.56-.86-5-3.89l-6.32.23a8.89 8.89 0 00.22 2.17c1.18 4.83 6.14 6.5 10.62 6.5 5.1 0 10.57-1.8 10.57-7.86m-24.72-5.86c0-1.9.09-4.61-.63-6.37-1.72-4.07-6.1-4.7-10-4.7-5.29 0-9.67 2.26-10 8.09h6.15c-.09-2.31 2.26-2.94 4.11-2.94 1.4 0 3.57.36 3.57 2.17s-2.44 1.76-3.61 1.94c-5.07.73-11.53 1.31-11.53 8 0 4.74 3.62 7.55 8.14 7.55 3.34 0 4.79-1 7.36-2.81l.05 2.13h6.38v-13zM304 34.9a6.25 6.25 0 01-5.47 3c-1.53 0-3.12-.72-3.12-2.48 0-3 4.84-3.08 7-3.62a10 10 0 001.63-.54v3.64zM76.56 31.84l-7.45-.5c0 3.62-3.44 5.87-6.83 5.87a7.75 7.75 0 01-4.92-1.71c-2.71-2.26-3.25-5.83-3.25-9.13 0-5.28 2.12-10.52 8.17-10.52a6.44 6.44 0 016 3.2 7.55 7.55 0 01.67 1.68l7.19-.5a12.08 12.08 0 00-.54-2.17c-1.9-5.65-7.55-8.22-13.2-8.22-10 0-16 6.82-16 16.58 0 6.69 3.16 13.24 9.62 15.77a17.65 17.65 0 006.28 1c5.2 0 10-1.89 12.7-6.55a12.39 12.39 0 001.58-4.83m24.8.9v-1.1c0-7.22-3.7-13.19-11.52-13.19C82.66 18.42 78 23.8 78 30.8c0 7.2 4.43 12.38 11.84 12.38 5.15 0 9.58-2.44 11.25-7.45l-6.69-.46a4.46 4.46 0 01-4.4 2.49c-3.07 0-4.65-2.13-5.06-5zm-7-5.06H85c.72-2.66 2.17-4 5-4a4.25 4.25 0 014.34 4m30.36 7.64c0-5.88-5.78-6.92-10.3-7.86-1.22-.27-4-.59-4-2.26s2-1.9 3.26-1.9a4.51 4.51 0 013.52 1.49 4.69 4.69 0 01.59 1.9l6.23-.32c-.27-5.73-5.1-7.95-10.25-7.95-4.75 0-9.76 1.9-9.76 7.41 0 9.35 13.91 6 13.91 10.17 0 1.85-1.89 2.17-3.34 2.17-3 0-4.56-.86-5-3.89l-6.32.22a8.84 8.84 0 00.22 2.17c1.18 4.84 6.14 6.51 10.62 6.51 5.1 0 10.57-1.81 10.57-7.86m26.57 7.18L141.62 28l9-8.85H142l-7.22 8V10.6h-6.65v31.9h6.65v-7.77l2.22-2.17 5.88 9.94zM202 24.76v-6.02a9.37 9.37 0 00-1.18-.09c-3.16 0-4.92 1.35-6 4.29V19.1h-6.51v23.4h6.83v-7.63-3.57c.09-3.8.63-6.64 5.29-6.64a9.36 9.36 0 011.58.13m25.3 5.92c0-7-4.52-12.29-11.7-12.29-7.6 0-12.52 4.93-12.52 12.52 0 7.18 4.56 12.24 11.88 12.24s12.34-5.24 12.34-12.47m-6.83-.27c0 3.48-1.17 7.32-5.28 7.32s-5.2-3.71-5.2-7.1 1.36-6.91 5.38-6.91 5.19 3.35 5.19 6.69M65.28 7.82h-7.76l-4.17-5.27h6.1l2 3.06 1.92-3.06h6.2l-4.29 5.27z"/></svg>