<svg xmlns="http://www.w3.org/2000/svg" viewBox="0 0 100 100"><path d="M10 47.89h20v20H10zm30 0h20v20H40zm30 0h20v20H70z" fill="none" stroke="#000" stroke-miterlimit="10" stroke-width="2"/><path d="M15.92 40.14l.61-.59a.2.2 0 01.31 0 2.53 2.53 0 001.48.65 1.22 1.22 0 001.27-1.13c0-.62-.58-1.19-1.66-1.19h-.67a.22.22 0 01-.23-.24v-.76a.21.21 0 01.23-.24h.67c1 0 1.49-.49 1.49-1.1a1.12 1.12 0 00-1.16-1.1A1.55 1.55 0 0017 35a.22.22 0 01-.32 0l-.59-.55a.21.21 0 010-.31 3.28 3.28 0 012.25-1.06 2.32 2.32 0 012.55 2.19 2.18 2.18 0 01-1.23 1.87 2.25 2.25 0 011.45 2c0 1.36-1.1 2.34-2.76 2.34a3.1 3.1 0 01-2.49-1.07.24.24 0 01.06-.27zm7.22-.61a1 1 0 011 1 1 1 0 01-1 1 1 1 0 01-1-1 1 1 0 011-1zm25.05-5.11l-1.06.23a.2.2 0 01-.24-.16l-.07-.59a.25.25 0 01.06-.22l1.73-1.45h.84a.23.23 0 01.22.23v7.7a.23.23 0 01-.22.23h-1a.23.23 0 01-.23-.23zm4 4.11a1 1 0 011 1 1 1 0 01-1 1 1 1 0 01-1-1 1 1 0 011-1zm23.69 1.35c.79-1 2.3-2.93 3.11-4a2.29 2.29 0 00.61-1.33 1.13 1.13 0 00-1.27-1.09 2 2 0 00-1.34.71.22.22 0 01-.32 0l-.58-.58a.24.24 0 010-.31 3.32 3.32 0 012.36-1.18 2.42 2.42 0 012.67 2.39 3.2 3.2 0 01-.8 1.94c-.52.73-1.43 1.86-2.06 2.66h2.59a.24.24 0 01.23.23v.83a.24.24 0 01-.23.23h-4.74a.23.23 0 01-.23-.23zm7.25-1.35a1 1 0 011 1 1 1 0 01-1 1 1 1 0 01-1-1 1 1 0 011-1z"/></svg>