<svg xmlns="http://www.w3.org/2000/svg" viewBox="0 0 40 40"><path d="M28.3 20a5.2 5.2 0 00-2.9-4.6 1 1 0 00-1.3.4 1 1 0 00.5 1.4 3.2 3.2 0 010 5.6 1 1 0 00.4 2 1 1 0 00.4-.2 5.2 5.2 0 003-4.6z"/><path d="M26.4 11.4a1 1 0 10-.8 1.8 7.6 7.6 0 014.9 6.8 7.6 7.6 0 01-4.9 6.8 1 1 0 00.4 1.9 1 1 0 00.4-.1 9.6 9.6 0 006-8.6 9.5 9.5 0 00-6-8.6zm-4-3.4a1 1 0 00-1 .3l-6.8 6h-2a5.7 5.7 0 000 11.4h2l6.7 6a1 1 0 00.7.3 1 1 0 001-1V9a1 1 0 00-.6-1zM21 28.9L15.7 24a1 1 0 00-.7-.2h-2.4a3.7 3.7 0 010-7.4H14v5.3a1 1 0 002 0v-5.8l5-4.6z"/></svg>