<svg xmlns="http://www.w3.org/2000/svg" viewBox="0 0 40 40">
  <path d="M32 16.4a1 1 0 0 0-.4.2l-5.8 3.2a1 1 0 0 0 1 1.8l5.2-3v8l-5.2-3a1 1 0 0 0-1 0 1 1 0 0 0-.5.9v.9a2.2 2.2 0 0 1-2.1 2.3h-12A2.2 2.2 0 0 1 9 25.4v-5.5a2.2 2.2 0 0 1 2.1-2.2H14a4 4 0 0 0 3.3-1.8 5.3 5.3 0 1 0-1-5.6 4 4 0 0 0-2.3-.6 4 4 0 0 0-4 4 3.9 3.9 0 0 0 .6 2A4.2 4.2 0 0 0 7 20v5.5a4.2 4.2 0 0 0 4.1 4.3h12a4.2 4.2 0 0 0 4-3.6l4.4 2.5a1 1 0 0 0 .5.1 1.8 1.8 0 0 0 2-2v-8.3a1.8 1.8 0 0 0-2-2zM21.2 9a3.3 3.3 0 1 1-3.2 3.3A3.3 3.3 0 0 1 21 9zM14 11.7a2 2 0 1 1-2 2 2 2 0 0 1 2-2z"/>
</svg>